#!OML:ASF H:\Terrain\Patient Classification 1\Takeo\Monday\TakeoMonday.ASF
:FULLY-SPECIFIED
:DEGREES
1747
root 7.49705 12.9552 -1.84099 26.7467 42.2189 4.00496
lowerback 38.8781 -2.28566 13.4724
upperback 12.1129 2.63414 -1.30689
thorax -4.71383 1.88532 -9.3019
lowerneck -17.86 -2.84501 -4.81707
upperneck 8.70195 -1.7572 -6.28809
head 5.53413 -1.48198 -1.39909
rclavicle 6.52014e-014 -7.71285e-014
rhumerus 46.4699 28.0243 -42.5504
rradius 43.2125
rwrist 9.17445
rhand -38.0077 45.3036
rfingers 7.12502
rthumb -11.0467 15.6143
lclavicle 6.52014e-014 -7.71285e-014
lhumerus -24.3118 -16.1099 88.7657
lradius 65.8659
lwrist 33.3147
lhand -28.9485 10.5158
lfingers 7.12502
lthumb -2.30197 40.4832
rfemur -94.8748 -28.7174 34.8544
rtibia 96.4933
rfoot -29.3062 -11.8064
rtoes 3.41712
lfemur -84.7119 -8.12296 -20.5911
ltibia 95.8634
lfoot -29.5818 6.99896
ltoes -7.40635
1748
root 7.49929 12.8177 -1.85011 27.1558 41.8257 4.52697
lowerback 38.9304 -2.1669 13.1241
upperback 12.4006 2.64622 -1.38621
thorax -4.43434 1.92758 -9.20672
lowerneck -17.5539 -2.83027 -4.81948
upperneck 8.14784 -1.79928 -6.27483
head 5.30806 -1.47647 -1.38558
rclavicle -1.43125e-014 3.18055e-015
rhumerus 46.8102 27.2459 -42.9424
rradius 42.3144
rwrist 11.0428
rhand -37.3623 46.0804
rfingers 7.12502
rthumb -10.4241 16.3589
lclavicle -1.43125e-014 3.18055e-015
lhumerus -24.0046 -16.2377 88.701
lradius 65.9977
lwrist 33.3794
lhand -29.1676 10.7198
lfingers 7.12502
lthumb -2.51359 40.6848
rfemur -96.0378 -28.6416 34.5804
rtibia 97.739
rfoot -29.5483 -11.9248
rtoes 2.5594
lfemur -85.5317 -8.14327 -21.1989
ltibia 97.1038
lfoot -29.9642 7.58788
ltoes -8.33591
1749
root 7.50103 12.6895 -1.85934 27.3007 41.391 4.84926
lowerback 39.1994 -2.02653 12.8536
upperback 12.7109 2.7491 -1.41805
thorax -4.1733 2.0133 -9.1309
lowerneck -17.5537 -2.81597 -4.76846
upperneck 7.88263 -1.80028 -6.34331
head 5.22295 -1.47029 -1.41183
rclavicle -5.56597e-014 -1.27222e-014
rhumerus 47.3411 27.255 -42.5235
rradius 41.761
rwrist 9.59333
rhand -38.5098 47.2355
rfingers 7.12502
rthumb -11.5309 17.5727
lclavicle -5.56597e-014 -1.27222e-014
lhumerus -23.6491 -16.7248 88.6416
lradius 66.2512
lwrist 33.4279
lhand -29.2905 11.2671
lfingers 7.12502
lthumb -2.63226 41.2306
rfemur -96.9067 -28.5293 34.3322
rtibia 98.8945
rfoot -29.8139 -11.8086
rtoes 3.78018
lfemur -86.1717 -8.07829 -21.6906
ltibia 98.3286
lfoot -30.6784 7.75013
ltoes -7.02872
1750
root 7.50525 12.573 -1.87035 26.9834 41.2507 4.62059
lowerback 39.4913 -2.04253 13.0283
upperback 13.0662 2.84379 -1.30662
thorax -3.8383 2.10992 -9.11686
lowerneck -17.8746 -2.77858 -4.62963
upperneck 7.83591 -1.72379 -6.6192
head 5.25815 -1.45103 -1.51882
rclavicle 5.08889e-014 9.54166e-015
rhumerus 47.5834 26.3686 -43.3595
rradius 41.071
rwrist 11.1192
rhand -38.0458 47.0064
rfingers 7.12502
rthumb -11.0835 17.3191
lclavicle 5.08889e-014 9.54166e-015
lhumerus -23.0901 -16.7456 88.7068
lradius 66.3591
lwrist 33.1379
lhand -29.3649 12.0356
lfingers 7.12502
lthumb -2.70411 41.9982
rfemur -97.4845 -28.4767 34.4766
rtibia 99.9479
rfoot -30.2151 -11.7944
rtoes 4.04224
lfemur -86.7438 -8.0292 -21.6376
ltibia 99.5413
lfoot -31.0393 8.14318
ltoes -6.4093
1751
root 7.5132 12.4412 -1.87549 26.9529 41.1843 4.66862
lowerback 39.4847 -2.05561 13.1092
upperback 13.5196 2.86561 -1.18472
thorax -3.32489 2.18789 -9.01202
lowerneck -18.1911 -2.84101 -4.46786
upperneck 7.60529 -1.79435 -6.93896
head 5.23167 -1.49912 -1.65496
rclavicle 2.22639e-014 4.85035e-014
rhumerus 48.2435 25.7606 -43.229
rradius 40.4786
rwrist 11.1896
rhand -38.0255 47.9959
rfingers 7.12502
rthumb -11.0639 18.3075
lclavicle 2.22639e-014 4.85035e-014
lhumerus -22.48 -16.5327 88.8284
lradius 66.5287
lwrist 33.0302
lhand -29.347 12.1245
lfingers 7.12502
lthumb -2.6868 42.0873
rfemur -98.4537 -28.6513 34.6614
rtibia 101.233
rfoot -30.753 -11.5466
rtoes 3.32401
lfemur -87.4601 -8.23317 -21.674
ltibia 100.785
lfoot -31.1205 8.93494
ltoes -8.68501
1752
root 7.51617 12.3103 -1.88089 27.0503 41.1204 4.83111
lowerback 39.3562 -2.00671 13.1368
upperback 14.0078 2.9246 -1.04234
thorax -2.73261 2.28801 -8.8687
lowerneck -18.3557 -3.00896 -4.5544
upperneck 7.18014 -2.00971 -6.96677
head 5.12014 -1.59481 -1.66786
rclavicle -5.725e-014 7.4743e-014
rhumerus 49.0432 25.4409 -42.1533
rradius 39.886
rwrist 9.73147
rhand -37.38 47.3432
rfingers 7.12502
rthumb -10.4412 17.6225
lclavicle -5.725e-014 7.4743e-014
lhumerus -21.889 -16.9744 88.8257
lradius 66.8424
lwrist 33.5939
lhand -29.494 12.1131
lfingers 7.12502
lthumb -2.82877 42.0741
rfemur -99.6673 -28.8473 34.8807
rtibia 102.531
rfoot -30.9527 -11.534
rtoes 2.6325
lfemur -88.2083 -8.44019 -21.745
ltibia 102.003
lfoot -31.4369 9.14036
ltoes -9.71807
1753
root 7.51425 12.2018 -1.89121 27.0263 41.0443 4.84151
lowerback 39.2912 -1.94271 13.1608
upperback 14.4841 3.01036 -0.871039
thorax -2.16856 2.39544 -8.70183
lowerneck -18.6665 -3.16768 -4.99016
upperneck 7.01613 -2.13682 -6.66636
head 5.12192 -1.6466 -1.52057
rclavicle 7.31528e-014 7.15625e-015
rhumerus 49.8182 25.1757 -41.0743
rradius 39.349
rwrist 8.55316
rhand -37.3468 46.7261
rfingers 7.12502
rthumb -10.4092 17.0038
lclavicle 7.31528e-014 7.15625e-015
lhumerus -21.2189 -17.3734 88.7876
lradius 67.0016
lwrist 34.1836
lhand -29.839 12.3387
lfingers 7.12502
lthumb -3.16199 42.295
rfemur -100.685 -28.8697 35.0521
rtibia 103.577
rfoot -30.8377 -11.8605
rtoes 1.73564
lfemur -88.8596 -8.48441 -21.7596
ltibia 103.092
lfoot -31.6905 9.5639
ltoes -10.4374
1754
root 7.51922 12.1004 -1.90244 27.1391 40.8409 5.16237
lowerback 39.2713 -1.88425 12.9335
upperback 15.0167 3.00324 -0.7831
thorax -1.59413 2.45677 -8.46778
lowerneck -19.2145 -3.26393 -5.29466
upperneck 7.01308 -2.15856 -6.52091
head 5.21137 -1.66353 -1.44004
rclavicle 3.49861e-014 3.02153e-014
rhumerus 50.5943 24.6606 -40.6097
rradius 38.7212
rwrist 8.97596
rhand -38.063 47.3563
rfingers 7.12502
rthumb -11.1 17.6699
lclavicle 3.49861e-014 3.02153e-014
lhumerus -20.5549 -17.2819 88.7687
lradius 67.1727
lwrist 34.321
lhand -29.7203 11.8709
lfingers 7.12502
lthumb -3.04731 41.8289
rfemur -101.526 -29.0269 34.8417
rtibia 104.562
rfoot -30.8185 -11.7535
rtoes 2.09624
lfemur -89.3408 -8.63794 -22.1088
ltibia 104.09
lfoot -31.6942 10.4879
ltoes -12.7095
1755
root 7.52646 11.9829 -1.9079 27.2473 40.6643 5.45815
lowerback 39.1386 -1.83849 12.7209
upperback 15.6087 2.97044 -0.707548
thorax -0.921933 2.51485 -8.24347
lowerneck -19.5807 -3.31681 -5.24214
upperneck 6.61642 -2.22329 -6.61982
head 5.14008 -1.69032 -1.48768
rclavicle 2.54444e-014 1.11319e-014
rhumerus 51.4318 24.0218 -40.3064
rradius 38.0502
rwrist 9.70741
rhand -38.7657 47.9881
rfingers 7.12502
rthumb -11.7778 18.3393
lclavicle 2.54444e-014 1.11319e-014
lhumerus -19.8006 -17.3069 88.6745
lradius 67.3117
lwrist 34.1758
lhand -29.5776 11.6544
lfingers 7.12502
lthumb -2.90956 41.6143
rfemur -102.369 -29.2796 34.8457
rtibia 105.693
rfoot -31.2034 -11.3788
rtoes 3.38291
lfemur -89.9062 -8.78504 -22.4371
ltibia 105.157
lfoot -32.0167 10.5106
ltoes -12.0294
1756
root 7.52742 11.8646 -1.90105 27.0434 40.7217 5.29189
lowerback 38.9575 -1.82757 12.7575
upperback 16.2312 2.9849 -0.494972
thorax -0.172915 2.60435 -8.00858
lowerneck -20.0216 -3.36768 -5.01845
upperneck 6.23508 -2.30217 -6.88782
head 5.08161 -1.73337 -1.61891
rclavicle -3.49861e-014 -7.95139e-016
rhumerus 52.2615 23.2453 -40.1625
rradius 37.3693
rwrist 10.225
rhand -38.9399 48.2668
rfingers 7.12502
rthumb -11.9457 18.6276
lclavicle -3.49861e-014 -7.95139e-016
lhumerus -18.8136 -17.3662 88.6684
lradius 67.3152
lwrist 33.906
lhand -29.8407 12.0851
lfingers 7.12502
lthumb -3.16359 42.0414
rfemur -103.037 -29.4496 35.4109
rtibia 106.866
rfoot -31.9088 -11.278
rtoes 3.26428
lfemur -90.5772 -8.83528 -22.2828
ltibia 106.307
lfoot -32.5666 10.3405
ltoes -11.2515
1757
root 7.52726 11.7641 -1.89595 26.6996 40.8137 5.14882
lowerback 39.1871 -1.88857 12.8778
upperback 16.6782 3.0044 -0.312115
thorax 0.265065 2.67307 -7.8591
lowerneck -20.609 -3.41834 -4.87898
upperneck 6.32681 -2.31748 -7.13771
head 5.19848 -1.7682 -1.73581
rclavicle 2.8625e-014 -3.33958e-014
rhumerus 52.6581 22.3351 -40.748
rradius 36.6604
rwrist 11.2649
rhand -38.602 49.025
rfingers 7.12502
rthumb -11.6198 19.3672
lclavicle 2.8625e-014 -3.33958e-014
lhumerus -18.1036 -17.2332 88.8144
lradius 67.4516
lwrist 33.8018
lhand -29.8038 11.564
lfingers 7.12502
lthumb -3.12797 41.5208
rfemur -103.411 -29.6821 35.8075
rtibia 107.856
rfoot -32.4583 -11.284
rtoes 1.8141
lfemur -90.9949 -8.97913 -22.1495
ltibia 107.342
lfoot -32.8643 10.8399
ltoes -13.4655
1758
root 7.53412 11.6597 -1.90735 26.3222 40.7971 4.96749
lowerback 39.4764 -1.97799 13.1589
upperback 17.0951 3.04791 -0.173361
thorax 0.674143 2.76214 -7.84543
lowerneck -21.0826 -3.62463 -5.20105
upperneck 6.31821 -2.47021 -7.06842
head 5.27081 -1.85256 -1.68991
rclavicle -7.31528e-014 -9.78021e-014
rhumerus 52.9703 21.518 -41.1334
rradius 36.1847
rwrist 12.1752
rhand -38.5147 49.8998
rfingers 7.12502
rthumb -11.5357 20.2372
lclavicle -7.31528e-014 -9.78021e-014
lhumerus -17.4191 -16.9346 89.0249
lradius 67.5238
lwrist 33.7863
lhand -30.0164 10.9975
lfingers 7.12502
lthumb -3.33331 40.9512
rfemur -103.846 -29.839 36.1272
rtibia 108.738
rfoot -32.7157 -11.325
rtoes 0.254598
lfemur -91.4326 -9.10856 -22.0948
ltibia 108.321
lfoot -32.9248 11.3118
ltoes -13.959
1759
root 7.53779 11.5603 -1.91825 25.9231 40.688 4.94305
lowerback 40.0238 -2.08389 13.2138
upperback 17.4766 3.03448 -0.116956
thorax 0.940945 2.80616 -7.79367
lowerneck -21.4404 -3.77429 -5.46856
upperneck 6.08625 -2.58804 -6.97766
head 5.25349 -1.90538 -1.63619
rclavicle 4.45278e-014 5.64548e-014
rhumerus 53.5032 21.0916 -41.0932
rradius 35.8958
rwrist 12.5497
rhand -38.3751 50.1881
rfingers 7.12502
rthumb -11.401 20.518
lclavicle 4.45278e-014 5.64548e-014
lhumerus -16.7409 -16.6667 89.0337
lradius 67.5993
lwrist 33.9374
lhand -30.5488 11.5178
lfingers 7.12502
lthumb -3.84739 41.4628
rfemur -104.224 -30.0348 36.2525
rtibia 109.641
rfoot -32.9629 -11.2409
rtoes -0.148327
lfemur -91.5592 -9.17613 -22.1654
ltibia 109.215
lfoot -33.2627 11.3732
ltoes -11.9167
1760
root 7.53849 11.4754 -1.91538 25.479 40.4046 4.93043
lowerback 40.6597 -2.05335 12.9596
upperback 17.8652 3.08614 -0.0810001
thorax 1.17945 2.86038 -7.63244
lowerneck -21.9183 -3.74699 -5.3875
upperneck 6.02466 -2.52985 -7.007
head 5.30563 -1.88228 -1.66194
rclavicle 1.04958e-013 -4.96962e-014
rhumerus 54.1732 20.781 -40.7947
rradius 35.5268
rwrist 12.6722
rhand -38.1199 50.3919
rfingers 7.12502
rthumb -11.1549 20.7084
lclavicle 1.04958e-013 -4.96962e-014
lhumerus -16.075 -16.6745 88.8449
lradius 67.8017
lwrist 34.2618
lhand -30.2818 11.9343
lfingers 7.12502
lthumb -3.58962 41.8839
rfemur -104.391 -30.0748 36.1914
rtibia 110.398
rfoot -33.1248 -11.325
rtoes -0.32384
lfemur -91.3968 -8.97686 -22.2663
ltibia 110.123
lfoot -34.117 10.7756
ltoes -9.10589
